<?xml version="1.0" encoding="iso-8859-1"?>
<!-- Uploaded to: SVG Repo, www.svgrepo.com, Generator: SVG Repo Mixer Tools -->
<!DOCTYPE svg PUBLIC "-//W3C//DTD SVG 1.1//EN" "http://www.w3.org/Graphics/SVG/1.1/DTD/svg11.dtd">
<svg fill="#0000FF" height="30" width="30px" version="1.1" id="Capa_1" xmlns="http://www.w3.org/2000/svg" xmlns:xlink="http://www.w3.org/1999/xlink" 
	 viewBox="0 0 58 58" xml:space="preserve">
<g>
	<path d="M32.5,34v24h24V34H32.5z M54.5,56h-20V36h9v12.586l-4.293-4.293l-1.414,1.414l6.707,6.707l6.707-6.707l-1.414-1.414
		L45.5,48.586V36h9V56z"/>
	<path d="M26.5,42c-0.827,0-1.637-0.016-2.432-0.044c-0.482-0.018-0.947-0.049-1.417-0.076c-0.297-0.017-0.603-0.028-0.895-0.049
		c-0.624-0.045-1.23-0.103-1.829-0.165c-0.12-0.013-0.246-0.021-0.365-0.034c-0.686-0.075-1.354-0.161-2.005-0.256
		c-0.024-0.003-0.049-0.006-0.072-0.009c-3.379-0.499-6.279-1.26-8.548-2.165c-0.017-0.007-0.035-0.013-0.051-0.02
		c-0.414-0.167-0.803-0.338-1.174-0.514c-0.047-0.022-0.097-0.044-0.144-0.067c-0.333-0.16-0.64-0.325-0.935-0.491
		c-0.073-0.042-0.15-0.083-0.221-0.125c-0.256-0.15-0.49-0.304-0.714-0.458c-0.089-0.062-0.18-0.123-0.263-0.185
		c-0.188-0.139-0.358-0.28-0.52-0.421c-0.092-0.08-0.183-0.16-0.266-0.241C4.516,36.551,4.4,36.422,4.29,36.293
		c-0.08-0.094-0.156-0.188-0.224-0.283c-0.087-0.121-0.161-0.242-0.227-0.363c-0.055-0.101-0.104-0.202-0.146-0.303
		c-0.048-0.119-0.086-0.238-0.114-0.356C3.541,34.825,3.5,34.662,3.5,34.5v-8.207c0.018,0.016,0.039,0.032,0.057,0.048
		c0.232,0.205,0.47,0.409,0.738,0.605C8.067,29.791,15.595,32,26.5,32c10.875,0,18.389-2.197,22.171-5.03
		c0.299-0.218,0.567-0.443,0.822-0.671c0.002-0.002,0.005-0.004,0.007-0.006V30c0,0.553,0.447,1,1,1s1-0.447,1-1v-7v-0.5v-12V10
		c0-0.163-0.047-0.31-0.116-0.445C50.163,4.365,39.061,0,26.5,0C13.938,0,2.837,4.365,1.616,9.555C1.547,9.69,1.5,9.838,1.5,10v0.5
		v12V23v11.5V35v12c0,0.161,0.042,0.313,0.115,0.448c1.139,4.833,10.691,7.68,19.811,8.364c0.025,0.002,0.051,0.003,0.076,0.003
		c0.519,0,0.957-0.399,0.996-0.925c0.042-0.551-0.372-1.031-0.922-1.072C10.461,52.984,3.984,49.6,3.532,46.838
		C3.524,46.793,3.514,46.75,3.5,46.707v-8.414c0.018,0.016,0.039,0.032,0.057,0.048c0.232,0.205,0.47,0.409,0.738,0.605
		C8.067,41.791,15.595,44,26.5,44c0.552,0,1-0.447,1-1S27.052,42,26.5,42z M4.101,14.797c0.3,0.236,0.624,0.469,0.975,0.696
		c0.073,0.047,0.155,0.093,0.231,0.14c0.294,0.183,0.605,0.362,0.932,0.538c0.121,0.065,0.242,0.129,0.367,0.193
		c0.365,0.186,0.748,0.366,1.151,0.542c0.066,0.029,0.126,0.059,0.193,0.087c0.469,0.199,0.967,0.389,1.485,0.572
		c0.143,0.051,0.293,0.099,0.44,0.149c0.412,0.139,0.838,0.272,1.279,0.401c0.159,0.046,0.315,0.094,0.478,0.139
		c0.585,0.162,1.189,0.316,1.823,0.458c0.087,0.02,0.181,0.037,0.269,0.056c0.559,0.122,1.139,0.235,1.735,0.34
		c0.202,0.036,0.407,0.07,0.613,0.104c0.567,0.093,1.151,0.179,1.75,0.257c0.154,0.02,0.301,0.042,0.457,0.062
		c0.744,0.09,1.514,0.167,2.305,0.233c0.195,0.016,0.398,0.028,0.596,0.042c0.633,0.046,1.28,0.084,1.942,0.114
		c0.241,0.011,0.481,0.022,0.727,0.03C24.712,19.979,25.59,20,26.5,20s1.788-0.021,2.65-0.05c0.245-0.008,0.485-0.02,0.727-0.03
		c0.662-0.03,1.309-0.068,1.942-0.114c0.198-0.014,0.401-0.026,0.596-0.042c0.791-0.066,1.551-0.144,2.305-0.233
		c0.156-0.02,0.312-0.042,0.457-0.062c0.599-0.078,1.162-0.165,1.735-0.34c0.161-0.035,0.317-0.072,0.478-0.104
		c0.635-0.079,1.267-0.197,1.879-0.355c0.153-0.048,0.317-0.095,0.475-0.144c0.335-0.068,0.666-0.141,0.989-0.213
		c0.146-0.026,0.308-0.052,0.458-0.078c0.4-0.05,0.795-0.103,1.19-0.164c0.146-0.017,0.295-0.033,0.444-0.051
		c0.747-0.062,1.489-0.128,2.226-0.208c0.22-0.029,0.432-0.059,0.651-0.09c0.559-0.066,1.093-0.137,1.652-0.209
		c0.068-0.006,0.136-0.012,0.203-0.018c0.465-0.034,0.922-0.065,1.382-0.088c0.043-0.003,0.085-0.01,0.128-0.014
		c0.855-0.049,1.694-0.106,2.537-0.159c0.235-0.018,0.472-0.035,0.707-0.049c0.889-0.027,1.778-0.057,2.671-0.057
		c0.74,0,1.446,0.016,2.154,0.05c0.048,0.001,0.093,0.008,0.141,0.01C19.827,13.957,19.961,14.068,20.101,14.797z"/>
</g>
</svg>
