<?xml version="1.0" standalone="no"?>
<!DOCTYPE svg PUBLIC "-//W3C//DTD SVG 20010904//EN"
 "http://www.w3.org/TR/2001/REC-SVG-20010904/DTD/svg10.dtd">
<svg version="1.0" xmlns="http://www.w3.org/2000/svg"
 width="225.000000pt" height="225.000000pt" viewBox="0 0 225.000000 225.000000"
 preserveAspectRatio="xMidYMid meet">

<g transform="translate(0.000000,225.000000) scale(0.100000,-0.100000)"
fill="#000000" stroke="none">
<path d="M949 2059 c-359 -209 -477 -277 -596 -345 l-123 -69 0 -520 0 -520
38 -21 c20 -11 208 -119 417 -241 209 -121 394 -227 412 -236 l32 -17 368 213
c202 117 403 233 446 257 l77 44 0 520 0 521 -78 44 c-73 42 -191 110 -552
318 -85 49 -180 104 -211 121 l-56 32 -174 -101z m436 -196 c35 -17 38 -21 38
-68 0 -41 -1 -42 -39 -64 l-35 -21 -40 23 c-37 21 -39 24 -37 65 2 39 6 46 37
62 20 11 37 19 38 20 1 0 18 -8 38 -17z m-465 -13 c26 -26 30 -126 5 -116 -8
3 -27 0 -41 -6 -23 -11 -29 -10 -45 11 -11 13 -19 27 -19 31 0 18 33 40 60 40
23 0 28 4 23 16 -4 10 -16 14 -36 12 -33 -3 -50 17 -20 25 37 10 53 7 73 -13z
m294 14 c26 -10 18 -24 -14 -24 -40 0 -38 -16 5 -34 24 -10 35 -22 35 -35 0
-28 -41 -54 -74 -45 -40 10 -33 31 9 26 22 -3 35 0 35 7 0 7 -16 19 -35 27
-26 11 -35 20 -35 39 0 34 36 53 74 39z m-228 -39 c3 -19 10 -35 14 -35 4 0
11 16 14 35 5 25 12 35 26 35 15 0 20 -10 26 -47 l8 -48 13 48 c9 28 20 47 29
47 11 0 13 -7 8 -27 -27 -109 -55 -132 -75 -61 l-13 43 -9 -42 c-14 -62 -39
-58 -60 10 -21 66 -21 77 -2 77 8 0 17 -14 21 -35z m212 -142 c-31 -8 -21 -33
12 -33 29 0 30 -2 30 -45 0 -25 -4 -45 -10 -45 -5 0 -10 17 -10 38 0 31 -4 38
-20 39 -17 2 -20 -4 -20 -38 0 -21 -5 -39 -11 -39 -6 0 -9 14 -8 33 2 18 0 38
-5 45 -4 6 -2 12 3 12 6 0 10 3 10 8 -4 22 3 32 24 31 16 -1 18 -2 5 -6z m232
-57 c0 -60 -1 -64 -25 -68 -42 -8 -70 27 -54 70 6 15 17 22 34 22 18 0 25 5
25 20 0 11 5 20 10 20 6 0 10 -28 10 -64z m-290 50 c0 -3 -4 -8 -10 -11 -5 -3
-10 -1 -10 4 0 6 5 11 10 11 6 0 10 -2 10 -4z m100 -6 c0 -5 -4 -10 -10 -10
-5 0 -10 5 -10 10 0 6 5 10 10 10 6 0 10 -4 10 -10z m-154 -15 c9 -8 11 -15 5
-15 -6 0 -11 -15 -11 -34 0 -24 5 -36 18 -39 11 -3 7 -5 -9 -6 -25 -1 -27 3
-31 44 -5 66 1 77 28 50z m-219 -17 c-37 -13 -35 -59 3 -68 16 -4 21 -8 13
-13 -7 -5 -21 -3 -32 3 -45 24 -32 91 17 89 l27 -1 -28 -10z m101 0 c23 -23
13 -38 -23 -38 -26 0 -33 -3 -29 -15 4 -8 18 -15 32 -15 20 0 23 -3 14 -12 -9
-9 -18 -9 -37 0 -20 9 -25 19 -25 46 0 19 6 37 13 39 22 9 43 7 55 -5z m60 1
c-12 -6 -18 -22 -18 -44 0 -19 -4 -35 -10 -35 -5 0 -10 20 -10 45 0 42 2 45
28 45 23 -1 24 -2 10 -11z m108 -27 c1 -15 -2 -34 -7 -42 -5 -10 -8 2 -9 34 0
50 13 57 16 8z m192 11 c3 -20 -1 -23 -28 -23 -40 0 -36 -23 6 -31 23 -5 25
-7 12 -13 -38 -17 -73 28 -57 73 12 31 63 26 67 -6z m75 -170 c-149 -2 -397
-2 -550 0 -153 1 -30 2 272 2 303 0 428 -1 278 -2z m-403 -178 c0 -37 4 -65
10 -65 6 0 10 -9 10 -21 0 -16 -5 -20 -27 -17 -28 3 -28 4 -31 86 -3 77 -2 82
18 82 18 0 20 -6 20 -65z m413 -12 c-1 -43 -2 -81 -2 -84 -2 -11 -90 -7 -100
4 -5 7 -12 24 -16 39 -5 21 -1 33 18 52 16 16 32 23 41 20 12 -5 16 0 16 20 0
20 5 26 23 26 21 0 22 -3 20 -77z m-473 48 c0 -15 -8 -21 -32 -23 -30 -3 -33
-6 -33 -38 0 -32 3 -35 33 -38 24 -2 32 -8 32 -23 0 -27 -59 -26 -94 2 -33 26
-37 88 -6 119 28 28 100 28 100 1z m198 -39 c31 -40 1 -102 -49 -102 -40 0
-61 25 -57 69 5 57 71 77 106 33z m72 -22 c0 -22 5 -40 10 -40 6 0 10 18 10
40 0 36 3 40 25 40 24 0 25 -3 25 -59 l0 -59 -50 0 c-58 0 -70 13 -70 77 0 37
2 41 25 41 23 0 25 -4 25 -40z m-112 -143 c4 -20 -25 -34 -40 -19 -15 15 -1
44 19 40 10 -2 19 -11 21 -21z m149 12 c15 -15 5 -39 -17 -39 -22 0 -32 24
-17 39 6 6 14 11 17 11 3 0 11 -5 17 -11z m-632 -29 c27 -30 10 -72 -33 -85
-24 -7 -32 -15 -32 -32 0 -18 -6 -23 -25 -23 -25 0 -25 1 -25 80 l0 80 48 0
c36 0 54 -5 67 -20z m395 -5 c0 -8 7 -15 15 -15 8 0 15 -7 15 -15 0 -8 -7 -15
-15 -15 -9 0 -15 -9 -15 -25 0 -16 6 -25 15 -25 8 0 15 -9 15 -20 0 -16 -7
-20 -30 -20 -32 0 -50 22 -50 64 0 22 -4 26 -30 26 -25 0 -30 -4 -30 -25 0
-24 9 -30 38 -26 8 2 12 -5 10 -16 -4 -25 -54 -29 -79 -7 -23 21 -25 67 -3 88
9 10 33 16 60 16 32 0 44 4 44 15 0 8 9 15 20 15 11 0 20 -7 20 -15z m160 0
c0 -8 7 -15 15 -15 8 0 15 -5 15 -10 0 -6 -7 -13 -15 -16 -20 -8 -19 -44 2
-59 20 -15 9 -35 -21 -35 -31 0 -46 18 -46 57 0 48 -18 40 -22 -9 -2 -36 -7
-44 -25 -46 -22 -3 -23 0 -23 58 l0 62 31 -4 c22 -4 33 0 40 14 12 22 49 24
49 3z m350 -80 c0 -48 -2 -55 -20 -55 -17 0 -20 7 -20 45 0 33 -4 45 -15 45
-11 0 -15 -12 -15 -45 0 -38 -3 -45 -20 -45 -18 0 -20 7 -20 61 0 60 1 61 24
57 14 -3 30 -1 37 3 7 4 21 3 31 -2 14 -8 18 -22 18 -64z m-696 56 c3 -4 7
-30 8 -57 l3 -49 -50 0 c-47 0 -50 2 -53 27 -3 28 28 55 48 43 6 -3 10 -1 10
6 0 7 -11 10 -30 7 -17 -3 -30 0 -31 6 0 6 -3 5 -6 -1 -2 -7 -11 -13 -18 -13
-9 0 -15 -14 -17 -37 -2 -31 -7 -39 -25 -41 -22 -3 -23 0 -23 56 l0 59 90 1
c49 0 92 -3 94 -7z m426 -51 c0 -53 -2 -60 -20 -60 -18 0 -20 7 -20 60 0 53 2
60 20 60 18 0 20 -7 20 -60z m124 44 c36 -35 7 -104 -42 -104 -51 0 -77 52
-52 101 13 24 72 26 94 3z m264 4 c7 -7 12 -22 12 -35 0 -20 -5 -23 -36 -23
-23 0 -33 -4 -28 -11 3 -6 17 -9 30 -6 28 5 43 -11 23 -24 -22 -14 -66 -10
-83 7 -18 18 -21 56 -6 85 12 22 68 27 88 7z m112 -10 c0 -11 -7 -18 -20 -18
-17 0 -20 -7 -20 -41 0 -36 -2 -40 -22 -37 -20 3 -23 10 -26 60 l-3 56 46 0
c37 -1 45 -4 45 -20z m-347 -205 c-149 -2 -397 -2 -550 0 -153 1 -30 2 272 2
303 0 428 -1 278 -2z m-893 -123 c0 -5 -9 -10 -20 -10 -11 0 -20 -4 -20 -10 0
-5 7 -10 15 -10 8 0 15 -4 15 -10 0 -5 -7 -10 -15 -10 -8 0 -15 -7 -15 -15 0
-8 -7 -15 -15 -15 -11 0 -15 12 -15 45 0 45 0 45 35 45 19 0 35 -4 35 -10z
m109 -4 c7 -8 11 -27 9 -43 -6 -51 -88 -41 -88 11 0 42 53 63 79 32z m83 -18
c4 -46 28 -49 28 -4 0 25 4 36 15 36 10 0 15 -10 15 -29 0 -47 -10 -61 -41
-61 -32 0 -48 22 -44 60 3 30 3 30 14 30 6 0 11 -14 13 -32z m141 10 l16 -23
0 23 c1 43 21 22 21 -23 0 -48 -19 -62 -39 -27 -10 16 -10 16 -11 0 0 -10 -7
-18 -15 -18 -11 0 -15 12 -15 45 0 51 17 60 43 23z m151 6 c33 -32 13 -74 -36
-74 -27 0 -28 2 -28 45 0 41 2 45 24 45 14 0 32 -7 40 -16z m122 -19 c20 -49
19 -52 -30 -52 l-44 0 15 44 c18 52 39 55 59 8z m124 25 c0 -5 -4 -10 -10 -10
-5 0 -10 -16 -10 -35 0 -24 -5 -35 -15 -35 -10 0 -15 11 -15 35 0 24 -5 35
-15 35 -8 0 -15 5 -15 10 0 6 18 10 40 10 22 0 40 -4 40 -10z m70 -35 c0 -33
-4 -45 -15 -45 -11 0 -15 12 -15 45 0 33 4 45 15 45 11 0 15 -12 15 -45z m119
31 c7 -8 11 -27 9 -43 -3 -25 -7 -28 -37 -28 -43 0 -60 23 -43 59 13 29 52 35
71 12z m99 -8 l11 -23 0 23 c1 13 7 22 16 22 11 0 15 -12 15 -45 0 -37 -3 -45
-18 -45 -11 0 -24 10 -30 23 l-11 22 0 -22 c-2 -44 -21 -23 -21 22 0 50 19 61
38 23z m150 -17 c7 -21 12 -41 12 -43 0 -3 -18 -5 -40 -5 -22 0 -40 2 -40 5 0
2 5 22 12 43 7 25 17 39 28 39 11 0 21 -14 28 -39z m82 4 c0 -28 4 -35 20 -35
11 0 20 -4 20 -10 0 -5 -16 -10 -35 -10 -35 0 -35 0 -35 45 0 33 4 45 15 45
10 0 15 -11 15 -35z"/>
<path d="M861 1777 c-6 -8 -8 -17 -4 -20 11 -12 41 -7 46 7 10 27 -22 36 -42
13z"/>
<path d="M1364 1626 c-10 -27 1 -51 24 -54 21 -3 23 0 20 30 -3 35 -33 52 -44
24z"/>
<path d="M920 1625 c-11 -13 -9 -15 15 -15 16 0 25 5 23 12 -7 19 -24 20 -38
3z"/>
<path d="M1277 1634 c-14 -14 -6 -24 19 -24 16 0 24 5 22 13 -5 14 -31 21 -41
11z"/>
<path d="M1342 1235 c2 -14 8 -26 13 -26 6 0 11 12 13 26 2 18 -1 25 -13 25
-12 0 -15 -7 -13 -25z"/>
<path d="M1076 1245 c-7 -19 3 -47 15 -39 12 7 12 54 0 54 -5 0 -11 -7 -15
-15z"/>
<path d="M550 1055 c0 -8 7 -15 15 -15 8 0 15 7 15 15 0 8 -7 15 -15 15 -8 0
-15 -7 -15 -15z"/>
<path d="M770 990 c0 -5 5 -10 10 -10 6 0 10 5 10 10 0 6 -4 10 -10 10 -5 0
-10 -4 -10 -10z"/>
<path d="M1320 1010 c0 -16 5 -30 10 -30 6 0 10 14 10 30 0 17 -4 30 -10 30
-5 0 -10 -13 -10 -30z"/>
<path d="M1588 1033 c7 -3 16 -2 19 1 4 3 -2 6 -13 5 -11 0 -14 -3 -6 -6z"/>
<path d="M574 695 c-3 -8 -3 -19 1 -25 11 -18 25 -11 25 15 0 27 -17 34 -26
10z"/>
<path d="M960 685 c0 -15 4 -24 10 -20 6 3 10 12 10 20 0 8 -4 17 -10 20 -6 4
-10 -5 -10 -20z"/>
<path d="M1387 703 c-13 -12 -7 -43 8 -43 9 0 15 9 15 25 0 24 -10 32 -23 18z"/>
</g>
</svg>
